 http://img36.imageshack.us/img36/9227/theadjustmentbureaupost.jpg

Country.......: USA
Genre.........: Thriller, Sci-Fi, Drama
Date release..: 26.02.2011 [World]
Director......: George Nolfi
Writers.......: George Nolfi, Philip K. Dick
Duration......: 105 min.
More..........: http://www.imdb.com/title/tt1385826
Trailer.......: http://www.imdb.com/video/imdb/vi2215418393
Trailer.......:

Pilot :
The affair between a politician and a ballerina is affected by mysterious forces keeping the lovers apart. 

Cats :
Matt Damon   	 ...  	David Norris
Emily Blunt 	... 	Elise Sellas
Florence Kastriner 	... 	Suburban Mom
Phyllis MacBryde 	... 	Suburban Neighbor
Natalie Carter 	... 	Suburban Neighbor (as Natalie E. Carter)
Chuck Scarborough 	... 	Himself
Jon Stewart 	... 	Himself
Gregory P. Hitchen 	... 	U.S. Coast Guard Officer (as Capt. Gregory P. Hitchen)
Darrell Lenormand 	... 	Upstate Farmer
Kar 	Kar 	... 	Political Consultant
Michael Kelly 	... 	Charlie Traynor
RJ Konner 	... 	Political Consultant
Susan D. Michaels 	... 	Reporter
Anthony Mackie 	... 	Harry Mitchell
Gregory Lay 	... 	Albert, Campaign Aide 

Data Technical :
!!! SAMPLE !!!
Audio.....: English
Subtitles.: None
Format                           : AVI
Format/Info                      : Audio Video Interleave
File size                        : 1.27 GiB
Duration                         : 1h 45mn
Overall bit rate                 : 1 730 Kbps
Writing library                  : VirtualDub build 32706/release
Video
ID                               : 0
Format                           : MPEG-4 Visual
Format profile                   : Advanced Simple@L5
Format settings, BVOP            : Yes
Format settings, QPel            : No
Format settings, GMC             : No warppoints
Format settings, Matrix          : Default (MPEG)
Muxing mode                      : Packed bitstream
Codec ID                         : XVID
Codec ID/Hint                    : XviD
Duration                         : 1h 45mn
Bit rate                         : 1 590 Kbps
Width                            : 720 pixels
Height                           : 400 pixels
Display aspect ratio             : 16:9
Frame rate                       : 23.976 fps
Color space                      : YUV
Chroma subsampling               : 4:2:0
Bit depth                        : 8 bits
Scan type                        : Progressive
Bits/(Pixel*Frame)               : 0.230
Stream size                      : 1.17 GiB (92%)
Writing library                  : XviD 61
Audio
ID                               : 1
Format                           : MPEG Audio
Format version                   : Version 1
Format profile                   : Layer 3
Mode                             : Joint stereo
Mode extension                   : MS Stereo
Codec ID                         : 55
Codec ID/Hint                    : MP3
Duration                         : 1h 45mn
Bit rate mode                    : Constant
Bit rate                         : 128 Kbps
Channel(s)                       : 2 channels
Sampling rate                    : 44.1 KHz
Stream size                      : 96.2 MiB (7%)
Alignment                        : Aligned on interleaves
Interleave, duration             : 26 ms (0.63 video frame)
Interleave, preload duration     : 522 ms
Writing library                  : LAME3.98.2

Screen : 
http://img189.imageshack.us/img189/759/theadjustmentburea2011s.jpg 
http://img64.imageshack.us/img64/759/theadjustmentburea2011s.jpg 
http://img864.imageshack.us/img864/759/theadjustmentburea2011s.jpg 
http://img844.imageshack.us/img844/759/theadjustmentburea2011s.jpg 
http://img171.imageshack.us/img171/759/theadjustmentburea2011s.jpg